# xmcd
#
# Track frame offsets: 
#        300
#        15415
#        33405
#        42894
#        49003
#        60181
#        71975
#        87918
#        97607
#        112072
#        119921
#        134378
#        148071
#        164682
#        175225
#        181136
#
# Disc length: 2549 seconds
#
# Revision: 0
# Processed by: cddbd v1.5.2PL0 Copyright (c) Steve Scherf et al.
# Submitted via: ExactAudioCopy v0.99pb4
#
DISCID=df09f110
DTITLE=А. Розенбаум - Новые песни cd 2
DYEAR=1983
DGENRE=Chanson
TTITLE0=Прости-прощай
TTITLE1=Утиная охота
TTITLE2=Воспоминания о будущем
TTITLE3=Воспоминания о прошлом
TTITLE4=38 узлов
TTITLE5=Баловалась вечером гитарой тишина
TTITLE6=Свадьба
TTITLE7=Маня (Дело было в ресторане)
TTITLE8=Лесосплав
TTITLE9=Как на гриф резной
TTITLE10=По снегу, летящему с неба
TTITLE11=На улице Марата
TTITLE12=Песня коня цыганских кровей
TTITLE13=Разговор, подслушанный в электричке Ленинград-Мга
TTITLE14=Посвещение посвящающим
TTITLE15=Простите Вы
EXTD=
EXTT0=
EXTT1=
EXTT2=
EXTT3=
EXTT4=
EXTT5=
EXTT6=
EXTT7=
EXTT8=
EXTT9=
EXTT10=
EXTT11=
EXTT12=
EXTT13=
EXTT14=
EXTT15=
PLAYORDER=
